<?xml version="1.0" standalone="no"?>
<!DOCTYPE svg PUBLIC "-//W3C//DTD SVG 1.1//EN" "http://www.w3.org/Graphics/SVG/1.1/DTD/svg11.dtd">
<svg xmlns="http://www.w3.org/2000/svg" id="Layer_1" data-name="Layer 1" width="300.45001220703125" height="150.75" viewBox="0 0 300.45 150.75"><title>eleccion-pastoral-logo</title><path d="M75.36.77A.77.77,0,0,1,76.12,0H99.73a.78.78,0,0,1,.77.77v1a.77.77,0,0,1-.77.76H78.19V18.78H96.85a.79.79,0,0,1,.77.77v1a.78.78,0,0,1-.77.76H78.19V38.74H99.73a.78.78,0,0,1,.77.77v.94a.77.77,0,0,1-.77.76H76.12a.77.77,0,0,1-.76-.76Z" fill="#38bad6"/><path d="M108.45.77a.77.77,0,0,1,.76-.77h1.06a.78.78,0,0,1,.77.77V40.45a.68.68,0,0,1-.77.76h-1.18a.68.68,0,0,1-.64-.76Z" fill="#38bad6"/><path d="M129.88,17.07a10.36,10.36,0,0,1,10.65,10.78c0,.94,0,2.3-.88,2.3H120.87c.23,5.06,3.89,9.3,9.18,9.3A12.56,12.56,0,0,0,137,37.27c.53-.35.77-.41,1.06,0l.59.82c.18.24.12.59-.23.95-1.18,1.17-4.89,2.76-8.54,2.76-7.19,0-11.6-5.53-11.6-12.42C118.28,22.67,122.69,17.07,129.88,17.07Zm8.06,11c0-4.6-2.76-8.6-8.06-8.6a8.76,8.76,0,0,0-8.95,8.6Z" fill="#38bad6"/><path d="M158.08,17.07a11.39,11.39,0,0,1,8.71,3.71.7.7,0,0,1-.11,1.06l-.59.59a.81.81,0,0,1-1.24-.12,9.74,9.74,0,0,0-6.77-2.7,9.63,9.63,0,0,0-9.72,9.77,9.73,9.73,0,0,0,9.66,10,9.53,9.53,0,0,0,7.36-3.47c.41-.47.77-.47,1.12-.12l.65.59c.29.29.41.59.17.94a11.72,11.72,0,0,1-9.24,4.53,12.37,12.37,0,1,1,0-24.73Z" fill="#38bad6"/><path d="M185.1,17.07a11.4,11.4,0,0,1,8.72,3.71.71.71,0,0,1-.12,1.06l-.59.59c-.41.41-.88.24-1.24-.12a9.74,9.74,0,0,0-6.77-2.7,9.62,9.62,0,0,0-9.71,9.77,9.72,9.72,0,0,0,9.65,10,9.51,9.51,0,0,0,7.36-3.47c.42-.47.77-.47,1.12-.12l.65.59a.68.68,0,0,1,.18.94,11.76,11.76,0,0,1-9.25,4.53,12.37,12.37,0,0,1,0-24.73Z" fill="#38bad6"/><path d="M200.82,4.18a2,2,0,1,1,4,0,2,2,0,0,1-4,0Zm.71,14.25a.78.78,0,0,1,.76-.77h1.06a.78.78,0,0,1,.77.77v22a.68.68,0,0,1-.77.76h-1.17a.68.68,0,0,1-.65-.76Z" fill="#38bad6"/><path d="M223.14,17.07A12.1,12.1,0,0,1,235,29.38c0,6.89-5.24,12.42-11.83,12.42S211.3,36.27,211.3,29.38A12.06,12.06,0,0,1,223.14,17.07Zm0,22.32c5.18,0,9.24-4.42,9.24-10,0-5.42-4.06-9.83-9.24-9.83a9.52,9.52,0,0,0-9.31,9.83C213.83,35,217.9,39.39,223.14,39.39ZM217.66,8.13l-.35-.77c-.18-.41-.06-.59.35-.82l9.72-5.13a.7.7,0,0,1,1,.18L229,2.77c.23.47-.06.82-.53,1.06l-10,4.53C218,8.6,217.84,8.48,217.66,8.13Z" fill="#38bad6"/><path d="M242.15,18.43a.8.8,0,0,1,.83-.77h.59a.66.66,0,0,1,.7.59l.24,2.53a12.58,12.58,0,0,1,8.71-3.71c6.6,0,9.48,4.19,9.48,10.78v12.6a.77.77,0,0,1-.76.76h-1.06a.77.77,0,0,1-.77-.76V27.85c0-5.42-2.53-8.24-7-8.24-4.82,0-8.18,3.76-8.42,4.06V40.45a.68.68,0,0,1-.76.76H242.8a.68.68,0,0,1-.65-.76Z" fill="#38bad6"/><path d="M67.44,80.54A37,37,0,0,1,77,82c.12-8.36-.9-12.2-7.34-12.2a39.75,39.75,0,0,0-13.56,2.48c-1.13.46-1.81-.11-2.15-1.13l-.9-2.82a1.81,1.81,0,0,1,1.24-2.49A42.43,42.43,0,0,1,70,62.91c11.52,0,14.35,5.88,14.35,19.1V107.1a2.23,2.23,0,0,1-2.15,2.15H80.1c-1.25,0-1.59-.68-1.93-1.7l-.9-3a19.56,19.56,0,0,1-14,5.88c-7.91,0-13.9-5.76-13.9-14.81C49.36,87,55.8,80.54,67.44,80.54ZM64.5,103.6a16,16,0,0,0,12.43-6.33V88.34c-1.35-.79-4.52-1.81-9.49-1.81-6.33,0-10.85,3.17-10.85,9C56.59,100.1,59.64,103.6,64.5,103.6Z" fill="#8b6728"/><path d="M92.87,102.92c.45-.68,1.24-2.26,1.58-2.82.56-.91,1.81-1.13,3-.34,0,0,4.86,3.95,10.62,3.95,4.64,0,7.35-2.37,7.35-5.42,0-4-3.39-5.77-10-9-6-2.94-12.88-6.9-12.88-14.58,0-4.75,3.84-11.76,14.35-11.76a23.08,23.08,0,0,1,12.55,3.51,2.72,2.72,0,0,1,.67,3.5l-.9,1.81a2.5,2.5,0,0,1-3.28,1S111.17,70,107,70c-5.08,0-6.44,2.6-6.44,4.52,0,3.73,3.73,5.43,8.36,7.69,7.8,3.73,14.81,7.23,14.81,15.37,0,6.55-6.33,12.77-15.6,12.77a22.94,22.94,0,0,1-14.69-5.09A2.25,2.25,0,0,1,92.87,102.92Z" fill="#8b6728"/><path d="M134.23,70.83h-5.77a2.14,2.14,0,0,1-2.14-2.15V66.19A2.08,2.08,0,0,1,128.46,64h5.77V51.5a2.22,2.22,0,0,1,2.14-2.15l3.62-.22a2.11,2.11,0,0,1,2,2.14V64h13.11a2.08,2.08,0,0,1,2.15,2.15v2.49a2.15,2.15,0,0,1-2.15,2.15H142V97.27c0,4.52,1.13,5.42,3.73,5.42,2.83,0,6.78-1.69,8.25-2.48,1.7-.91,2.15-.23,2.72.68l1.69,2.82c.79,1.36.45,2-.79,2.83-1.58,1-7.69,3.84-13,3.84-9,0-10.39-5.43-10.39-12.43Z" fill="#8b6728"/><path d="M184.63,62.91c12.54,0,22.49,10.85,22.49,23.62,0,13-10,23.85-22.49,23.85s-22.49-10.85-22.49-23.85C162.14,73.76,172.08,62.91,184.63,62.91Zm0,40.12c8.25,0,14.69-7.34,14.69-16.5,0-8.92-6.44-16.16-14.69-16.16s-14.69,7.24-14.69,16.16C169.94,95.69,176.38,103,184.63,103Z" fill="#8b6728"/><path d="M215.37,66.19A2.22,2.22,0,0,1,217.51,64h2.15a1.92,1.92,0,0,1,1.92,1.59l.91,3.27s4.18-6,13.56-6c3.39,0,9,.57,7.91,3.73l-1.36,3.85C242,72,241,72,239.89,71.5a11.71,11.71,0,0,0-4.41-.9,14.52,14.52,0,0,0-12.32,6.33V107.1a2.22,2.22,0,0,1-2.14,2.15h-3.51a2.22,2.22,0,0,1-2.14-2.15Z" fill="#8b6728"/><path d="M263.4,80.54A37,37,0,0,1,273,82c.12-8.36-.9-12.2-7.34-12.2a39.75,39.75,0,0,0-13.56,2.48c-1.13.46-1.81-.11-2.15-1.13L249,68.34a1.82,1.82,0,0,1,1.25-2.49A42.43,42.43,0,0,1,266,62.91c11.52,0,14.35,5.88,14.35,19.1V107.1a2.23,2.23,0,0,1-2.15,2.15h-2.15c-1.24,0-1.58-.68-1.92-1.7l-.9-3a19.57,19.57,0,0,1-14,5.88c-7.91,0-13.9-5.76-13.9-14.81C245.31,87,251.76,80.54,263.4,80.54Zm-2.94,23.06a16,16,0,0,0,12.43-6.33V88.34c-1.36-.79-4.52-1.81-9.49-1.81-6.33,0-10.85,3.17-10.85,9C252.55,100.1,255.6,103.6,260.46,103.6Z" fill="#8b6728"/><path d="M291.65,32.29a2.23,2.23,0,0,1,2.15-2.15h3.5a2.23,2.23,0,0,1,2.15,2.15V107.1a2.23,2.23,0,0,1-2.15,2.15h-3.5a2.23,2.23,0,0,1-2.15-2.15Z" fill="#8b6728"/><path d="M60,144.17,15,61.56h0l-.09-.15-2.8-5.08C10.3,52.71,8.27,48,8.27,45c0-5.47,4.78-12.31,18.46-12.31s17.09,10,17.09,14.13c0,11.63-6.15,11.85-7.52,16s2.19,5.54,3.42,6.15,6.15-1.37,1.36-2.74,8.21-7.52,8.21-19.14c0-2-2.74-21.88-23.93-21.88S-.62,41.6.06,49.81c.34,4.07,3.46,9.45,4.36,10.92l47.76,87.72a4.44,4.44,0,0,0,3.9,2.3,4.35,4.35,0,0,0,2.14-.55A4.44,4.44,0,0,0,60,144.17Z" fill="#8b6728"/><path d="M70.19,122.4a.26.26,0,0,1,.25-.26h.91a.27.27,0,0,1,.26.26v9a.27.27,0,0,1-.26.26h-.91a.26.26,0,0,1-.25-.26Z" fill="#224a57"/><path d="M78.21,122a5,5,0,0,1,3.32,1.27.26.26,0,0,1,0,.38l-.62.65c-.11.12-.22.11-.35,0a3.66,3.66,0,0,0-2.33-.93,3.55,3.55,0,0,0,0,7.1,4.86,4.86,0,0,0,2-.46v-1.54H79a.24.24,0,0,1-.26-.24v-.79a.25.25,0,0,1,.26-.26h2.49a.26.26,0,0,1,.25.26c0,1.09,0,2.21,0,3.3a.31.31,0,0,1-.11.22,6.8,6.8,0,0,1-3.39.91,4.93,4.93,0,0,1,0-9.85Z" fill="#224a57"/><path d="M83.59,122.4a.26.26,0,0,1,.26-.26h.9a.26.26,0,0,1,.26.26v8h3.7a.26.26,0,0,1,.26.26v.75a.26.26,0,0,1-.26.26H83.85a.26.26,0,0,1-.26-.26Z" fill="#224a57"/><path d="M90.14,122.4a.26.26,0,0,1,.26-.26h5.47a.26.26,0,0,1,.26.26v.76a.26.26,0,0,1-.26.26H91.55v2.79H95.2a.28.28,0,0,1,.26.26v.77a.26.26,0,0,1-.26.26H91.55v2.94h4.32a.26.26,0,0,1,.26.26v.75a.26.26,0,0,1-.26.26H90.4a.26.26,0,0,1-.26-.26Z" fill="#224a57"/><path d="M97.3,130.33c.13-.18.24-.39.36-.56s.31-.24.46-.11a4.06,4.06,0,0,0,2.19.94,1.38,1.38,0,0,0,1.55-1.27c0-.82-.71-1.34-2.07-1.9s-2.49-1.31-2.49-2.9c0-1.07.82-2.53,3-2.53a4.63,4.63,0,0,1,2.53.81.32.32,0,0,1,.08.46l-.34.52a.33.33,0,0,1-.48.14,4.13,4.13,0,0,0-1.85-.69c-1.15,0-1.54.73-1.54,1.24,0,.77.6,1.25,1.73,1.72,1.59.64,2.94,1.39,2.94,3.06a2.8,2.8,0,0,1-3.05,2.59,4.48,4.48,0,0,1-2.94-1.08A.3.3,0,0,1,97.3,130.33Z" fill="#224a57"/><path d="M105,122.4a.26.26,0,0,1,.26-.26h.9a.26.26,0,0,1,.26.26v9a.26.26,0,0,1-.26.26h-.9a.26.26,0,0,1-.26-.26Z" fill="#224a57"/><path d="M107.5,131.35l4.2-9.2a.34.34,0,0,1,.23-.15h.14a.32.32,0,0,1,.23.15l4.17,9.2a.24.24,0,0,1-.23.36h-.86a.31.31,0,0,1-.31-.21l-.85-1.87h-4.47l-.84,1.87a.34.34,0,0,1-.31.21h-.86A.25.25,0,0,1,107.5,131.35Zm6.2-2.9L112,124.71H112l-1.67,3.74Z" fill="#224a57"/><path d="M120.3,122.4a.26.26,0,0,1,.25-.26h3.15a4.79,4.79,0,1,1,0,9.57h-3.15a.26.26,0,0,1-.25-.26Zm3.2,8a3.49,3.49,0,0,0,0-7h-1.8v7Z" fill="#224a57"/><path d="M130.19,122.4a.26.26,0,0,1,.26-.26h5.47a.26.26,0,0,1,.26.26v.76a.26.26,0,0,1-.26.26H131.6v2.79h3.65a.27.27,0,0,1,.26.26v.77a.26.26,0,0,1-.26.26H131.6v2.94h4.32a.26.26,0,0,1,.26.26v.75a.26.26,0,0,1-.26.26h-5.47a.26.26,0,0,1-.26-.26Z" fill="#224a57"/><path d="M138,122.4a.26.26,0,0,1,.26-.26h.91a.26.26,0,0,1,.25.26v8h3.71a.26.26,0,0,1,.26.26v.75a.26.26,0,0,1-.26.26h-4.87a.26.26,0,0,1-.26-.26Z" fill="#224a57"/><path d="M147.26,122.25a.26.26,0,0,1,.26-.25h.34l5.93,6.86h0V122.4a.26.26,0,0,1,.26-.26h.87a.26.26,0,0,1,.26.26v9.2a.26.26,0,0,1-.26.25h-.35l-5.94-7.06h0v6.66a.26.26,0,0,1-.26.26h-.86a.26.26,0,0,1-.26-.26Z" fill="#224a57"/><path d="M156.3,131.35l4.2-9.2a.32.32,0,0,1,.23-.15h.13a.33.33,0,0,1,.24.15l4.17,9.2a.25.25,0,0,1-.24.36h-.86a.31.31,0,0,1-.31-.21l-.85-1.87h-4.47c-.27.63-.56,1.24-.83,1.87a.35.35,0,0,1-.32.21h-.86A.24.24,0,0,1,156.3,131.35Zm6.19-2.9-1.68-3.74h-.07l-1.67,3.74Z" fill="#224a57"/><path d="M165.4,131.2l4.52-7.7v0h-3.86a.26.26,0,0,1-.26-.26v-.79a.26.26,0,0,1,.26-.26h5.62a.26.26,0,0,1,.26.26v.17l-4.52,7.83h4a.26.26,0,0,1,.26.26v.78a.26.26,0,0,1-.26.26h-5.75a.27.27,0,0,1-.26-.26Z" fill="#224a57"/><path d="M172.12,131.35l4.2-9.2a.32.32,0,0,1,.23-.15h.14a.34.34,0,0,1,.23.15l4.17,9.2a.25.25,0,0,1-.23.36H180a.32.32,0,0,1-.32-.21l-.85-1.87h-4.47c-.27.63-.56,1.24-.83,1.87a.34.34,0,0,1-.32.21h-.86A.25.25,0,0,1,172.12,131.35Zm6.19-2.9-1.68-3.74h-.07l-1.66,3.74Z" fill="#224a57"/><path d="M182.18,122.4a.26.26,0,0,1,.26-.26h3.72a3,3,0,0,1,3,2.92,3,3,0,0,1-2,2.78l1.87,3.47a.26.26,0,0,1-.23.4h-1.07a.25.25,0,0,1-.21-.12L185.66,128h-2.07v3.49a.26.26,0,0,1-.26.26h-.89a.26.26,0,0,1-.26-.26Zm3.87,4.39a1.71,1.71,0,0,0,1.67-1.7,1.68,1.68,0,0,0-1.67-1.63h-2.43v3.33Z" fill="#224a57"/><path d="M191,122.4a.26.26,0,0,1,.26-.26h5.47a.26.26,0,0,1,.26.26v.76a.26.26,0,0,1-.26.26h-4.32v2.79h3.65a.27.27,0,0,1,.26.26v.77a.26.26,0,0,1-.26.26h-3.65v2.94h4.32a.26.26,0,0,1,.26.26v.75a.26.26,0,0,1-.26.26h-5.47a.26.26,0,0,1-.26-.26Z" fill="#224a57"/><path d="M198.79,122.25a.26.26,0,0,1,.26-.25h.34l5.93,6.86h0V122.4a.26.26,0,0,1,.26-.26h.87a.26.26,0,0,1,.26.26v9.2a.26.26,0,0,1-.26.25h-.35l-5.94-7.06h0v6.66a.26.26,0,0,1-.26.26h-.86a.26.26,0,0,1-.26-.26Z" fill="#224a57"/><path d="M213.32,122a4.93,4.93,0,1,1-4.91,4.94A4.91,4.91,0,0,1,213.32,122Zm0,8.48a3.56,3.56,0,1,0-3.54-3.54A3.56,3.56,0,0,0,213.32,130.48Z" fill="#224a57"/><path d="M226.9,122a4.78,4.78,0,0,1,3.31,1.27.25.25,0,0,1,0,.38l-.6.62c-.09.12-.22.12-.34,0a3.71,3.71,0,0,0-2.36-.92,3.55,3.55,0,0,0,0,7.1,3.69,3.69,0,0,0,2.35-.9.26.26,0,0,1,.33,0l.63.62a.26.26,0,0,1,0,.37,4.68,4.68,0,0,1-3.32,1.33,4.93,4.93,0,1,1,0-9.85Z" fill="#224a57"/><path d="M236.08,122a4.93,4.93,0,1,1-4.91,4.94A4.91,4.91,0,0,1,236.08,122Zm0,8.48a3.56,3.56,0,1,0-3.54-3.54A3.56,3.56,0,0,0,236.08,130.48Z" fill="#224a57"/><path d="M242.68,122.4a.26.26,0,0,1,.26-.26h3.72a3,3,0,0,1,3,2.92,3,3,0,0,1-2,2.78l1.87,3.47a.26.26,0,0,1-.23.4h-1.07a.25.25,0,0,1-.21-.12L246.16,128h-2.07v3.49a.26.26,0,0,1-.26.26h-.89a.26.26,0,0,1-.26-.26Zm3.87,4.39a1.71,1.71,0,0,0,1.67-1.7,1.68,1.68,0,0,0-1.67-1.63h-2.43v3.33Z" fill="#224a57"/><path d="M255.72,122a4.93,4.93,0,1,1-4.91,4.94A4.91,4.91,0,0,1,255.72,122Zm0,8.48a3.56,3.56,0,1,0-3.55-3.54A3.56,3.56,0,0,0,255.72,130.48Z" fill="#224a57"/><path d="M262.32,122.25a.26.26,0,0,1,.26-.25h.34l5.94,6.86h0V122.4a.26.26,0,0,1,.26-.26H270a.27.27,0,0,1,.26.26v9.2a.26.26,0,0,1-.26.25h-.36l-5.93-7.06h0v6.66a.26.26,0,0,1-.26.26h-.86a.26.26,0,0,1-.26-.26Z" fill="#224a57"/><path d="M271.36,131.35l4.2-9.2a.32.32,0,0,1,.23-.15h.14a.32.32,0,0,1,.23.15l4.17,9.2a.25.25,0,0,1-.23.36h-.86a.32.32,0,0,1-.32-.21l-.85-1.87H273.6c-.27.63-.56,1.24-.83,1.87a.34.34,0,0,1-.32.21h-.86A.25.25,0,0,1,271.36,131.35Zm6.2-2.9-1.69-3.74h-.07l-1.66,3.74Z" fill="#224a57"/><path d="M281.43,122.4a.25.25,0,0,1,.24-.26h3.15a4.79,4.79,0,1,1,0,9.57h-3.15a.25.25,0,0,1-.24-.26Zm3.2,8a3.49,3.49,0,0,0,0-7h-1.81v7Z" fill="#224a57"/><path d="M295.52,122a4.93,4.93,0,1,1-4.9,4.94A4.92,4.92,0,0,1,295.52,122Zm0,8.48a3.56,3.56,0,1,0-3.54-3.54A3.56,3.56,0,0,0,295.52,130.48Z" fill="#224a57"/></svg>