<?xml version="1.0" encoding="utf-8"?>
<!-- Generator: Adobe Illustrator 21.1.0, SVG Export Plug-In . SVG Version: 6.00 Build 0)  -->
<!DOCTYPE svg PUBLIC "-//W3C//DTD SVG 1.1//EN" "http://www.w3.org/Graphics/SVG/1.1/DTD/svg11.dtd">
<svg version="1.1" id="Layer_1" xmlns="http://www.w3.org/2000/svg" xmlns:xlink="http://www.w3.org/1999/xlink" x="0px" y="0px"
	 viewBox="0 0 199.81 126.69" enable-background="new 0 0 199.81 126.69" xml:space="preserve">
<g>
	<g>
		<path fill-rule="evenodd" clip-rule="evenodd" fill="#FFFFFF" d="M97.9,0.18c-4.28,6.25-3.97,12.35-2.86,14.83
			c-0.01-3.31,0.59-6.38,2.27-9.16c0.42-0.7,0.94-1.34,1.41-2.01c0.07,0.04,0.14,0.07,0.21,0.11c-0.08,0.23-0.14,0.46-0.23,0.68
			c-1.24,2.91-2.11,5.91-1.92,9.13c0.17,2.83,1.14,5.33,3.18,7.36c1.42,1.4,3.22,1.14,4.15-0.64c0.85-1.62,0.74-3.24-0.2-4.8
			c-0.11-0.19-0.23-0.37-0.47-0.74c0.44,0.11,0.72,0.13,0.95,0.24c2.27,1.07,3.88,2.79,4.84,5.1c0.7,1.7,0.04,4.19-1.38,5.42
			c-0.13,0.11-0.27,0.22-0.44,0.35c1.22,0.86,2.41,1.69,3.59,2.54c4.2,3.03,7.16,6.99,8.83,11.9c0.57,1.67,0.71,3.42,0.52,5.18
			c0.05,0.04,0.11,0.09,0.17,0.13c0.42-0.4,0.9-0.75,1.25-1.2c1.5-1.87,2.42-4.03,2.88-6.37c0.92-4.68-0.24-8.79-3.52-12.28
			c-3.24-3.46-7.01-6.28-10.86-9.01c-0.51-0.36-1.03-0.71-1.51-1.22c0.37,0.05,0.75,0.07,1.1,0.16c6.74,1.78,12.27,5.42,16.48,10.96
			c2.19,2.88,3.23,6.18,2.88,9.84c-0.26,2.69-1.28,5.11-2.7,7.37c-1.49,2.37-3.4,4.39-5.37,6.37c-3.13,3.15-6.19,6.38-9.27,9.58
			c-0.55,0.58-1.09,1.17-1.75,1.88c-0.25-0.75-0.47-1.33-0.63-1.93c-1.08-4.27-3.59-6.89-9.06-7.43c-3.69-0.37-7.44-0.21-11.16-0.32
			c-5.63-0.17-11.17-0.83-16.41-3.09c-3.52-1.52-6.63-3.59-8.9-6.74c-2.42-3.36-3.34-7.14-3.07-11.24c0.13-2,0.45-3.96,1.24-5.82
			c0.93-2.17,2.41-3.87,4.47-5.04c0.38-0.22,0.81-0.37,1.37-0.62c-0.1,0.51-0.16,0.87-0.25,1.22c-0.75,3.05-1.41,6.12-1.28,9.29
			c0.28,7.04,3.63,12.15,9.89,15.31c2.75,1.39,5.76,2,8.8,2.29c3.75,0.35,7.52,0.54,11.27,0.85c3.07,0.25,6.08,0.77,8.9,2.13
			c2.74,1.32,4.67,3.29,5.32,6.35c0.05,0.26,0.16,0.5,0.27,0.87c0.24-0.19,0.43-0.29,0.55-0.45c1.97-2.57,3.98-5.17,4.48-8.47
			c0.85-5.59-0.27-10.67-4.55-14.71c-3.09-2.91-6.59-5.25-10.19-7.46c-2.47-1.52-4.91-3.07-6.9-5.21c-1.97-2.12-3.38-4.52-3.76-7.43
			c-0.31-2.39,0.1-4.69,1.07-6.89c1.15-2.61,2.79-4.85,5.04-6.62C97,0.42,97.43,0.23,97.82,0C97.85,0.06,97.87,0.12,97.9,0.18z"/>
		<path fill-rule="evenodd" clip-rule="evenodd" fill="#FFFFFF" d="M108.74,62.7c-0.28,0.04-0.52,0.1-0.75,0.1
			c-15.33,0-30.66,0.01-45.98,0c-0.41,0-0.96,0.14-1.07-0.51c-0.11-0.62,0.16-1.06,0.89-1.19c1.61-0.29,3.24-0.46,4.84-0.77
			c3.8-0.72,7.59-1.49,11.39-2.25c4.76-0.95,9.51-1.98,14.29-2.82c2.69-0.47,5.45-0.71,8.14,0.07c3.7,1.07,6.29,3.51,8.07,6.85
			C108.64,62.31,108.67,62.47,108.74,62.7z"/>
		<path fill-rule="evenodd" clip-rule="evenodd" fill="#FFFFFF" d="M112.52,62.75c2.07-2.88,4.16-5.43,7.66-6.14
			c1.73-0.35,3.5-0.13,5.21,0.27c4.18,0.98,8.33,2.08,12.52,3.04c2.51,0.57,5.05,0.96,7.58,1.46c0.29,0.06,0.61,0.21,0.79,0.42
			c0.15,0.17,0.21,0.52,0.14,0.73c-0.05,0.15-0.38,0.21-0.6,0.28c-0.12,0.04-0.27,0.01-0.4,0.01c-10.61,0-21.22,0-31.84,0
			C113.29,62.82,113.01,62.78,112.52,62.75z"/>
		<path fill-rule="evenodd" clip-rule="evenodd" fill="#FFFFFF" d="M91.72,31.66C81.5,32.2,72.04,25.22,70.77,19.01
			c2.74,3.3,5.48,6.57,9.58,8.31c-1.44-1.57-2.92-3.04-4.24-4.64c-2.23-2.73-3.8-5.79-4.45-9.3c-0.61-3.33,0.18-6.35,1.94-9.18
			c0.14-0.22,0.25-0.46,0.38-0.68c0.09,0.07,0.19,0.14,0.28,0.21c0,0.39,0.05,0.78-0.01,1.16c-0.62,4.25,0.29,8.2,2.34,11.92
			c2.33,4.24,5.65,7.63,9.41,10.61c1.62,1.28,3.34,2.43,5,3.64C91.21,31.2,91.39,31.38,91.72,31.66z"/>
		<path fill-rule="evenodd" clip-rule="evenodd" fill="#FFFFFF" d="M128.85,64.65c5.29,0,10.59,0,15.89,0c0.09,0,0.18,0,0.27,0.01
			c1.27,0.03,1.31,0.09,1.22,1.36c-0.04,0.61-0.28,0.84-0.92,0.84c-11.02-0.02-22.04-0.01-33.05-0.01c-0.58,0-0.79-0.2-0.79-0.79
			c0-1.41-0.02-1.41,1.36-1.41c5.34,0,10.68,0,16.02,0C128.85,64.66,128.85,64.66,128.85,64.65z"/>
		<path fill-rule="evenodd" clip-rule="evenodd" fill="#FFFFFF" d="M75.07,66.87c0.13-0.68,0.2-1.24,0.36-1.76
			c0.05-0.18,0.32-0.31,0.52-0.42c0.08-0.05,0.22-0.01,0.33-0.01c10.03,0,20.06,0,30.08,0c0.63,0,1.26,0.05,1.88,0.02
			c0.63-0.03,0.86,0.25,0.8,0.84c-0.01,0.11,0,0.23,0,0.34c-0.02,0.91-0.11,1-1,1c-10.7,0-21.4,0-32.11,0
			C75.68,66.87,75.44,66.87,75.07,66.87z"/>
		<path fill-rule="evenodd" clip-rule="evenodd" fill="#FFFFFF" d="M67.8,64.75c2.25,0,4.42,0,6.76,0c-0.52,2.2-0.85,4.39-1.58,6.43
			c-0.75,2.11-2.43,3.45-4.6,4.09c-0.23,0.07-0.47,0.08-0.75,0.13c0.22-0.94,0.45-1.8,0.61-2.67c0.17-0.94,0.14-0.94-0.78-0.94
			c-1.18,0-2.36,0-3.58-0.12C66.28,69.92,67.57,67.62,67.8,64.75z M72.04,67.18c-0.36-0.03-0.73-0.05-1.13-0.08
			c0.11-0.45,0.21-0.83,0.3-1.19c-0.63-0.27-0.84,0.06-0.93,0.53c-0.1,0.5-0.3,0.81-0.89,0.69c-0.5-0.1-0.76,0.13-0.73,0.68
			c0.37,0.03,0.74,0.05,1.16,0.08c-0.26,0.89-0.51,1.73-0.75,2.56c0.59,0.2,0.82-0.01,0.93-0.5c0.11-0.48,0.31-0.93,0.42-1.41
			c0.12-0.5,0.33-0.8,0.91-0.69C71.84,67.96,72.08,67.73,72.04,67.18z"/>
		<path fill-rule="evenodd" clip-rule="evenodd" fill="#FFFFFF" d="M63.45,66.81c-0.76,0-1.53-0.01-2.29,0
			c-0.46,0.01-0.69-0.12-0.69-0.64c0-1.67-0.17-1.49,1.44-1.5c1.37,0,2.74,0.03,4.11,0.01c0.58-0.01,0.74,0.27,0.72,0.79
			c-0.06,1.15-0.25,1.34-1.4,1.34C64.71,66.81,64.08,66.81,63.45,66.81z"/>
		<path fill-rule="evenodd" clip-rule="evenodd" fill="#FFFFFF" d="M109.45,50.04c0.83,0.01,1.71,0.68,1.73,1.38
			c0.01,0.23-0.09,0.56-0.26,0.69c-0.13,0.1-0.53,0.05-0.66-0.08c-0.44-0.43-0.86-0.89-1.21-1.4
			C108.78,50.24,108.98,50.02,109.45,50.04z"/>
		<g>
			<path fill="#FFFFFF" d="M59.01,66.43c-0.19,0.2-0.43,0.29-0.71,0.29c-0.28,0-0.51-0.1-0.7-0.29c-0.19-0.19-0.29-0.43-0.29-0.71
				c0-0.27,0.1-0.51,0.29-0.7c0.19-0.19,0.43-0.29,0.7-0.29c0.28,0,0.51,0.1,0.71,0.29c0.19,0.19,0.29,0.43,0.29,0.7
				C59.3,66,59.2,66.24,59.01,66.43z M57.7,65.12c-0.17,0.17-0.25,0.37-0.25,0.61c0,0.24,0.08,0.44,0.25,0.61
				c0.17,0.17,0.37,0.25,0.61,0.25c0.24,0,0.44-0.08,0.61-0.25c0.17-0.17,0.25-0.37,0.25-0.61c0-0.24-0.08-0.44-0.25-0.61
				c-0.17-0.17-0.37-0.25-0.61-0.25C58.07,64.87,57.86,64.96,57.7,65.12z M58.28,65.18c0.14,0,0.23,0.01,0.3,0.04
				c0.11,0.05,0.17,0.14,0.17,0.28c0,0.1-0.04,0.17-0.11,0.21c-0.04,0.03-0.09,0.04-0.16,0.05c0.09,0.01,0.15,0.05,0.19,0.11
				c0.04,0.06,0.06,0.11,0.06,0.17v0.08c0,0.02,0,0.05,0,0.08c0,0.03,0,0.05,0.01,0.06l0.01,0.01h-0.18c0,0,0-0.01,0-0.01
				c0,0,0-0.01,0-0.01l0-0.04v-0.09c0-0.13-0.03-0.21-0.1-0.25c-0.04-0.03-0.11-0.04-0.21-0.04h-0.15v0.43H57.9v-1.09H58.28z
				 M58.49,65.35c-0.05-0.03-0.13-0.04-0.23-0.04h-0.16v0.4h0.17c0.08,0,0.14-0.01,0.18-0.02c0.08-0.03,0.11-0.09,0.11-0.17
				C58.56,65.43,58.54,65.38,58.49,65.35z"/>
		</g>
	</g>
	<g>
		<g>
			<path fill="#FFFFFF" d="M2.36,85.57h1.02v10.89H2.36V85.57z"/>
			<path fill="#FFFFFF" d="M16.58,95.75c-0.64,0.36-1.29,0.61-1.98,0.76s-1.38,0.22-2.08,0.22c-0.83,0-1.59-0.14-2.28-0.42
				c-0.69-0.28-1.28-0.68-1.78-1.18c-0.49-0.51-0.88-1.11-1.15-1.81c-0.28-0.7-0.42-1.47-0.42-2.3c0-0.83,0.14-1.59,0.42-2.29
				c0.28-0.7,0.66-1.3,1.15-1.81c0.49-0.51,1.08-0.91,1.78-1.19s1.45-0.43,2.28-0.43c1.62,0,2.93,0.5,3.92,1.51l-0.74,0.77
				c-0.16-0.19-0.37-0.38-0.61-0.55c-0.24-0.17-0.5-0.31-0.78-0.43c-0.28-0.12-0.58-0.21-0.88-0.28c-0.31-0.07-0.61-0.1-0.91-0.1
				c-0.71,0-1.35,0.12-1.92,0.37s-1.05,0.58-1.45,1.02c-0.4,0.43-0.71,0.94-0.92,1.52S7.9,90.33,7.9,91.01
				c0,0.68,0.11,1.31,0.32,1.89c0.22,0.58,0.52,1.09,0.92,1.52s0.88,0.77,1.45,1.01s1.21,0.37,1.92,0.37c0.58,0,1.13-0.05,1.65-0.14
				c0.51-0.09,0.98-0.26,1.4-0.51V91.5h-2.61v-0.92h3.63V95.75z"/>
			<path fill="#FFFFFF" d="M20.79,85.57h1.02v9.97h5.08v0.92h-6.09V85.57z"/>
			<path fill="#FFFFFF" d="M29.72,85.57h6.66v0.92h-5.65v3.88h5.29v0.92h-5.29v4.25h5.89v0.92h-6.91V85.57z"/>
			<path fill="#FFFFFF" d="M40.36,94.44c0.27,0.46,0.61,0.81,1.04,1.03c0.43,0.23,0.91,0.34,1.45,0.34c0.34,0,0.66-0.05,0.95-0.15
				c0.3-0.1,0.56-0.25,0.78-0.43c0.22-0.18,0.39-0.41,0.52-0.67c0.13-0.26,0.19-0.56,0.19-0.88c0-0.38-0.08-0.69-0.24-0.94
				s-0.37-0.45-0.64-0.61c-0.27-0.16-0.57-0.29-0.9-0.41c-0.33-0.11-0.68-0.23-1.03-0.34c-0.35-0.11-0.7-0.24-1.03-0.38
				c-0.33-0.14-0.63-0.33-0.9-0.56s-0.48-0.52-0.64-0.87c-0.16-0.35-0.24-0.78-0.24-1.29c0-0.48,0.09-0.91,0.28-1.29
				c0.19-0.37,0.45-0.69,0.77-0.94c0.32-0.25,0.69-0.44,1.12-0.57c0.42-0.13,0.86-0.19,1.32-0.19c0.59,0,1.15,0.1,1.65,0.32
				c0.51,0.21,0.95,0.56,1.31,1.05l-0.88,0.63c-0.26-0.36-0.56-0.63-0.9-0.81c-0.34-0.18-0.75-0.27-1.22-0.27
				c-0.33,0-0.64,0.04-0.94,0.13s-0.56,0.21-0.78,0.38c-0.22,0.17-0.4,0.38-0.53,0.64c-0.13,0.26-0.2,0.56-0.2,0.91
				c0,0.54,0.14,0.96,0.42,1.25c0.28,0.29,0.62,0.52,1.04,0.69c0.42,0.17,0.87,0.32,1.35,0.45c0.49,0.13,0.94,0.3,1.35,0.52
				c0.42,0.21,0.76,0.52,1.04,0.9c0.28,0.38,0.42,0.92,0.42,1.59c0,0.49-0.09,0.93-0.28,1.31c-0.18,0.38-0.43,0.7-0.75,0.96
				c-0.31,0.26-0.67,0.46-1.08,0.59c-0.41,0.13-0.84,0.2-1.28,0.2c-0.72,0-1.38-0.13-1.98-0.38c-0.61-0.25-1.12-0.67-1.55-1.27
				L40.36,94.44z"/>
			<path fill="#FFFFFF" d="M49.85,85.57h1.02v10.89h-1.02V85.57z"/>
			<path fill="#FFFFFF" d="M58.42,85.57h1.05l4.58,10.89h-1.14l-1.18-2.89h-5.77l-1.23,2.89h-1.06L58.42,85.57z M58.9,86.67
				l-2.54,5.97h5L58.9,86.67z"/>
			<path fill="#FFFFFF" d="M71.94,85.57h3.37c0.94,0,1.74,0.12,2.4,0.35c0.66,0.23,1.2,0.53,1.64,0.88
				c0.44,0.36,0.78,0.76,1.03,1.19c0.25,0.44,0.44,0.85,0.55,1.25c0.12,0.4,0.19,0.76,0.22,1.08c0.03,0.32,0.05,0.55,0.05,0.68
				c0,0.13-0.02,0.36-0.05,0.68c-0.03,0.32-0.11,0.68-0.22,1.08c-0.12,0.4-0.3,0.82-0.55,1.25c-0.25,0.44-0.6,0.83-1.03,1.19
				c-0.44,0.36-0.98,0.65-1.64,0.88c-0.66,0.23-1.46,0.35-2.4,0.35h-3.37V85.57z M72.96,95.53h2.09c0.72,0,1.39-0.09,2.02-0.27
				c0.63-0.18,1.17-0.45,1.63-0.82s0.83-0.84,1.09-1.41c0.27-0.57,0.4-1.24,0.4-2.02s-0.13-1.45-0.4-2.02
				c-0.27-0.57-0.63-1.04-1.09-1.41s-1.01-0.64-1.63-0.82s-1.3-0.27-2.02-0.27h-2.09V95.53z"/>
			<path fill="#FFFFFF" d="M84.71,85.57h6.66v0.92h-5.65v3.88h5.29v0.92h-5.29v4.25h5.89v0.92h-6.91V85.57z"/>
			<path fill="#FFFFFF" d="M95.06,85.57h1.02v9.97h5.08v0.92h-6.09V85.57z"/>
			<path fill="#FFFFFF" d="M109.22,85.57h1.31l6.63,9.54h0.03v-9.54h1.01v10.89h-1.31l-6.63-9.54h-0.03v9.54h-1.02V85.57z"/>
			<path fill="#FFFFFF" d="M125.75,85.57h1.05l4.58,10.89h-1.14l-1.18-2.89h-5.77l-1.23,2.89H121L125.75,85.57z M126.23,86.67
				l-2.54,5.97h5L126.23,86.67z"/>
			<path fill="#FFFFFF" d="M133.04,95.66l6.37-9.17h-6.28v-0.92h7.58v0.83l-6.42,9.14h6.58v0.92h-7.85V95.66z"/>
			<path fill="#FFFFFF" d="M147.3,85.57h1.05l4.58,10.89h-1.14l-1.18-2.89h-5.77l-1.23,2.89h-1.06L147.3,85.57z M147.78,86.67
				l-2.54,5.97h5L147.78,86.67z"/>
			<path fill="#FFFFFF" d="M155.73,85.57h2.86c0.14,0,0.34,0.01,0.58,0.02c0.25,0.01,0.51,0.04,0.8,0.09
				c0.29,0.05,0.58,0.13,0.88,0.25c0.3,0.11,0.56,0.28,0.8,0.49c0.24,0.21,0.43,0.49,0.58,0.81c0.15,0.33,0.23,0.73,0.23,1.2
				c0,0.52-0.09,0.95-0.27,1.29c-0.18,0.34-0.41,0.61-0.68,0.82c-0.27,0.21-0.57,0.37-0.9,0.47s-0.64,0.17-0.94,0.21l3.17,5.23
				h-1.15l-3.06-5.17h-1.89v5.17h-1.02V85.57z M156.75,90.37h2.15c0.53,0,0.97-0.07,1.3-0.2c0.33-0.13,0.59-0.3,0.78-0.49
				c0.18-0.19,0.31-0.41,0.38-0.63c0.07-0.23,0.1-0.43,0.1-0.62s-0.03-0.39-0.1-0.62c-0.07-0.23-0.19-0.44-0.38-0.63
				c-0.18-0.19-0.44-0.36-0.78-0.49c-0.33-0.13-0.77-0.2-1.3-0.2h-2.15V90.37z"/>
			<path fill="#FFFFFF" d="M166.09,85.57h6.66v0.92h-5.65v3.88h5.29v0.92h-5.29v4.25h5.89v0.92h-6.91V85.57z"/>
			<path fill="#FFFFFF" d="M176.44,85.57h1.31l6.63,9.54h0.03v-9.54h1.01v10.89h-1.31l-6.63-9.54h-0.03v9.54h-1.02V85.57z"/>
			<path fill="#FFFFFF" d="M188.93,91.01c0-0.83,0.14-1.59,0.42-2.29c0.28-0.7,0.66-1.3,1.15-1.81c0.49-0.51,1.08-0.91,1.78-1.19
				c0.69-0.29,1.45-0.43,2.28-0.43c0.83,0,1.59,0.14,2.28,0.43s1.28,0.68,1.78,1.19c0.49,0.51,0.88,1.11,1.15,1.81
				c0.28,0.7,0.42,1.46,0.42,2.29c0,0.83-0.14,1.6-0.42,2.3c-0.28,0.7-0.66,1.31-1.15,1.81c-0.49,0.51-1.08,0.9-1.78,1.18
				c-0.69,0.28-1.45,0.42-2.28,0.42c-0.83,0-1.59-0.14-2.28-0.42c-0.69-0.28-1.29-0.68-1.78-1.18c-0.49-0.51-0.88-1.11-1.15-1.81
				C189.07,92.61,188.93,91.84,188.93,91.01z M189.95,91.01c0,0.68,0.11,1.31,0.32,1.89c0.21,0.58,0.52,1.09,0.92,1.52
				s0.88,0.77,1.45,1.01c0.57,0.25,1.21,0.37,1.92,0.37c0.71,0,1.35-0.12,1.92-0.37s1.05-0.58,1.45-1.01
				c0.4-0.43,0.71-0.94,0.92-1.52c0.21-0.58,0.32-1.21,0.32-1.89c0-0.68-0.11-1.31-0.32-1.89c-0.22-0.58-0.52-1.09-0.92-1.52
				c-0.4-0.43-0.88-0.77-1.45-1.02s-1.21-0.37-1.92-0.37c-0.71,0-1.35,0.12-1.92,0.37c-0.57,0.25-1.05,0.58-1.45,1.02
				c-0.4,0.43-0.71,0.94-0.92,1.52C190.05,89.7,189.95,90.33,189.95,91.01z"/>
		</g>
		<g>
			<path fill="#FFFFFF" d="M21.6,122.76c-1.04,1.4-2.24,2.41-3.6,3.02c-1.36,0.61-2.83,0.92-4.42,0.92c-1.65,0-3.16-0.28-4.53-0.84
				c-1.37-0.56-2.55-1.34-3.52-2.35s-1.74-2.21-2.29-3.6c-0.55-1.39-0.82-2.91-0.82-4.56c0-1.65,0.27-3.16,0.82-4.54
				c0.55-1.38,1.31-2.58,2.29-3.58s2.15-1.79,3.52-2.36c1.37-0.57,2.88-0.85,4.53-0.85c1.46,0,2.83,0.26,4.1,0.78
				c1.27,0.52,2.38,1.39,3.34,2.61l-1.65,1.37c-0.67-1.02-1.53-1.76-2.58-2.23c-1.05-0.47-2.12-0.7-3.22-0.7
				c-1.4,0-2.67,0.24-3.8,0.73c-1.13,0.49-2.09,1.16-2.88,2.01s-1.4,1.86-1.83,3.02s-0.64,2.41-0.64,3.75
				c0,1.34,0.21,2.59,0.64,3.75s1.04,2.17,1.83,3.02s1.75,1.52,2.88,2.01c1.13,0.49,2.39,0.73,3.8,0.73c0.55,0,1.12-0.07,1.71-0.2
				c0.59-0.13,1.16-0.33,1.72-0.61c0.56-0.27,1.09-0.62,1.6-1.04c0.51-0.42,0.95-0.92,1.34-1.51L21.6,122.76z"/>
			<path fill="#FFFFFF" d="M26.33,115.35c0-1.65,0.27-3.16,0.82-4.54c0.55-1.38,1.31-2.58,2.29-3.58s2.15-1.79,3.52-2.36
				c1.37-0.57,2.88-0.85,4.53-0.85c1.65,0,3.15,0.28,4.53,0.85c1.37,0.57,2.55,1.36,3.52,2.36s1.74,2.2,2.29,3.58
				c0.55,1.38,0.82,2.9,0.82,4.54c0,1.65-0.27,3.17-0.82,4.56c-0.55,1.39-1.31,2.59-2.29,3.6s-2.15,1.79-3.52,2.35
				c-1.37,0.56-2.88,0.84-4.53,0.84c-1.65,0-3.16-0.28-4.53-0.84c-1.37-0.56-2.55-1.34-3.52-2.35s-1.74-2.21-2.29-3.6
				C26.6,118.52,26.33,117,26.33,115.35z M28.34,115.35c0,1.34,0.21,2.59,0.64,3.75s1.04,2.17,1.83,3.02s1.75,1.52,2.88,2.01
				c1.13,0.49,2.39,0.73,3.8,0.73c1.4,0,2.67-0.24,3.79-0.73c1.13-0.49,2.09-1.16,2.88-2.01s1.4-1.86,1.83-3.02s0.64-2.41,0.64-3.75
				c0-1.34-0.21-2.59-0.64-3.75s-1.04-2.16-1.83-3.02s-1.75-1.52-2.88-2.01c-1.13-0.49-2.39-0.73-3.79-0.73
				c-1.4,0-2.67,0.24-3.8,0.73c-1.13,0.49-2.09,1.16-2.88,2.01s-1.4,1.86-1.83,3.02S28.34,114.01,28.34,115.35z"/>
			<path fill="#FFFFFF" d="M55.59,104.56h5.67c0.28,0,0.67,0.01,1.16,0.03s1.02,0.08,1.59,0.18c0.57,0.1,1.15,0.26,1.74,0.49
				c0.59,0.22,1.12,0.55,1.58,0.98s0.85,0.97,1.16,1.62s0.46,1.44,0.46,2.38c0,1.04-0.18,1.89-0.53,2.56
				c-0.36,0.67-0.8,1.21-1.34,1.63c-0.54,0.42-1.13,0.73-1.78,0.93c-0.65,0.2-1.27,0.35-1.86,0.43l6.28,10.36h-2.29l-6.07-10.24
				H57.6v10.24h-2.01V104.56z M57.6,114.07h4.27c1.06,0,1.92-0.13,2.58-0.4c0.66-0.26,1.17-0.59,1.54-0.98
				c0.37-0.39,0.61-0.8,0.75-1.25c0.13-0.45,0.2-0.85,0.2-1.22c0-0.37-0.07-0.77-0.2-1.22c-0.13-0.45-0.38-0.86-0.75-1.25
				c-0.37-0.39-0.88-0.71-1.54-0.98c-0.66-0.26-1.52-0.4-2.58-0.4H57.6V114.07z"/>
			<path fill="#FFFFFF" d="M74.7,115.35c0-1.65,0.27-3.16,0.82-4.54c0.55-1.38,1.31-2.58,2.29-3.58s2.15-1.79,3.52-2.36
				c1.37-0.57,2.88-0.85,4.53-0.85c1.65,0,3.15,0.28,4.53,0.85c1.37,0.57,2.55,1.36,3.52,2.36s1.74,2.2,2.29,3.58
				c0.55,1.38,0.82,2.9,0.82,4.54c0,1.65-0.27,3.17-0.82,4.56c-0.55,1.39-1.31,2.59-2.29,3.6s-2.15,1.79-3.52,2.35
				c-1.37,0.56-2.88,0.84-4.53,0.84c-1.65,0-3.16-0.28-4.53-0.84c-1.37-0.56-2.55-1.34-3.52-2.35s-1.74-2.21-2.29-3.6
				C74.98,118.52,74.7,117,74.7,115.35z M76.71,115.35c0,1.34,0.21,2.59,0.64,3.75s1.04,2.17,1.83,3.02s1.75,1.52,2.88,2.01
				c1.13,0.49,2.39,0.73,3.8,0.73c1.4,0,2.67-0.24,3.79-0.73c1.13-0.49,2.09-1.16,2.88-2.01s1.4-1.86,1.83-3.02s0.64-2.41,0.64-3.75
				c0-1.34-0.21-2.59-0.64-3.75s-1.04-2.16-1.83-3.02s-1.75-1.52-2.88-2.01c-1.13-0.49-2.39-0.73-3.79-0.73
				c-1.4,0-2.67,0.24-3.8,0.73c-1.13,0.49-2.09,1.16-2.88,2.01s-1.4,1.86-1.83,3.02S76.71,114.01,76.71,115.35z"/>
			<path fill="#FFFFFF" d="M103.97,104.56h2.59l13.14,18.9h0.06v-18.9h2.01v21.58h-2.59l-13.14-18.9h-0.06v18.9h-2.01V104.56z"/>
			<path fill="#FFFFFF" d="M136.74,104.56h2.07l9.08,21.58h-2.26l-2.35-5.73h-11.43l-2.44,5.73h-2.1L136.74,104.56z M137.68,106.75
				l-5.03,11.83h9.91L137.68,106.75z"/>
			<path fill="#FFFFFF" d="M153.17,104.56h6.68c1.87,0,3.46,0.23,4.76,0.69c1.3,0.46,2.38,1.04,3.25,1.75
				c0.86,0.71,1.54,1.5,2.04,2.36c0.5,0.86,0.86,1.69,1.1,2.48s0.38,1.51,0.44,2.15c0.06,0.64,0.09,1.09,0.09,1.36
				c0,0.26-0.03,0.72-0.09,1.36c-0.06,0.64-0.21,1.36-0.44,2.15c-0.23,0.79-0.6,1.62-1.1,2.49c-0.5,0.86-1.18,1.65-2.04,2.36
				c-0.86,0.71-1.95,1.29-3.25,1.75c-1.3,0.46-2.89,0.69-4.76,0.69h-6.68V104.56z M155.18,124.31h4.15c1.42,0,2.75-0.18,3.99-0.53
				c1.24-0.36,2.32-0.9,3.23-1.63c0.92-0.73,1.64-1.66,2.17-2.79c0.53-1.13,0.79-2.46,0.79-4.01c0-1.54-0.26-2.88-0.79-4.01
				c-0.53-1.13-1.25-2.06-2.17-2.79c-0.91-0.73-1.99-1.28-3.23-1.63c-1.24-0.36-2.57-0.53-3.99-0.53h-4.15V124.31z"/>
			<path fill="#FFFFFF" d="M177.07,115.35c0-1.65,0.27-3.16,0.82-4.54s1.31-2.58,2.29-3.58s2.15-1.79,3.52-2.36
				c1.37-0.57,2.88-0.85,4.53-0.85c1.65,0,3.16,0.28,4.53,0.85c1.37,0.57,2.55,1.36,3.52,2.36c0.97,1.01,1.74,2.2,2.29,3.58
				s0.82,2.9,0.82,4.54c0,1.65-0.27,3.17-0.82,4.56c-0.55,1.39-1.31,2.59-2.29,3.6c-0.98,1.01-2.15,1.79-3.52,2.35
				c-1.37,0.56-2.88,0.84-4.53,0.84c-1.65,0-3.16-0.28-4.53-0.84c-1.37-0.56-2.54-1.34-3.52-2.35s-1.74-2.21-2.29-3.6
				C177.34,118.52,177.07,117,177.07,115.35z M179.08,115.35c0,1.34,0.21,2.59,0.64,3.75s1.04,2.17,1.83,3.02
				c0.79,0.85,1.75,1.52,2.88,2.01c1.13,0.49,2.39,0.73,3.8,0.73s2.67-0.24,3.79-0.73c1.13-0.49,2.09-1.16,2.88-2.01
				c0.79-0.85,1.4-1.86,1.83-3.02s0.64-2.41,0.64-3.75c0-1.34-0.21-2.59-0.64-3.75s-1.04-2.16-1.83-3.02
				c-0.79-0.85-1.75-1.52-2.88-2.01c-1.13-0.49-2.39-0.73-3.79-0.73s-2.67,0.24-3.8,0.73c-1.13,0.49-2.09,1.16-2.88,2.01
				c-0.79,0.85-1.4,1.86-1.83,3.02S179.08,114.01,179.08,115.35z"/>
		</g>
		<line fill="none" stroke="#F3B027" stroke-miterlimit="10" x1="0.38" y1="99.92" x2="200.15" y2="99.92"/>
	</g>
</g>
</svg>
